<?xml version="1.0" standalone="no"?>
<!DOCTYPE svg PUBLIC "-//W3C//DTD SVG 20010904//EN"
 "http://www.w3.org/TR/2001/REC-SVG-20010904/DTD/svg10.dtd">
<svg version="1.0" xmlns="http://www.w3.org/2000/svg"
 width="290.000000pt" height="290.000000pt" viewBox="0 0 290.000000 290.000000"
 preserveAspectRatio="xMidYMid meet">
<metadata>
Created by potrace 1.14, written by Peter Selinger 2001-2017
</metadata>
<g transform="translate(0.000000,290.000000) scale(0.100000,-0.100000)"
fill="#000000" stroke="none">
<path d="M752 2688 c-4 -4 -20 -9 -37 -12 -16 -2 -30 -5 -30 -6 0 -1 -7 -3
-15 -5 -8 -2 -24 -6 -35 -9 -38 -10 -90 -24 -229 -60 -77 -21 -145 -40 -151
-44 -7 -5 -10 -325 -10 -1124 l0 -1118 61 0 c70 0 72 -2 69 -73 -1 -26 2 -50
7 -53 8 -5 347 -8 511 -5 l37 1 0 425 0 425 468 1 c257 0 500 2 540 3 40 1 76
-2 78 -6 3 -5 6 -168 6 -363 l0 -355 64 0 64 0 0 -65 c0 -55 3 -65 18 -66 109
-4 521 -1 529 4 8 5 11 356 10 1167 -1 1037 -3 1160 -17 1161 -45 2 -106 6
-111 8 -4 0 -6 26 -5 57 1 30 -2 58 -7 61 -8 5 -310 7 -499 4 l-47 -1 0 -457
c0 -252 0 -473 0 -490 l-1 -33 -545 0 -545 0 0 456 0 456 -22 -6 c-13 -4 -34
-9 -48 -12 -14 -3 -33 -7 -42 -10 -16 -5 -18 3 -18 73 0 72 -2 79 -20 79 -11
0 -24 -4 -28 -8z"/>
</g>
</svg>
